# xmcd
#
# Track frame offsets:
#	150
#	11160
#	23257
#	34285
#	48170
#	59032
#	69825
#	81567
#	92312
#	105745
#	116817
#	130705
#	143807
#	157597
#	170447
#	184365
#	197502
#	212842
#	226347
#	238230
#	249010
#	260987
#	273772
#	286032
#
# Disc length: 3980 seconds
#
# Revision: 2
# Processed by: cddbd v1.5PL3 Copyright (c) Steve Scherf et al.
# Submitted via: EasyCDDAExtractor 6.5.5.1
#
DISCID=470f8a18
DTITLE=Andy Williams - Dear Heart - The Shadow of Your Smile
DYEAR=1999
DGENRE=Easy Listening
TTITLE0=Red Roses for a Blue Lady
TTITLE1=It Had to Be You
TTITLE2=I Can't Stop Loving You
TTITLE3=Till
TTITLE4=I'm All Smiles
TTITLE5=Who Can I Turn To (When Nobody Needs Me)
TTITLE6=You're Nobody 'Til Somebody Loves You
TTITLE7=Emily
TTITLE8=Almost There
TTITLE9=My Carousel
TTITLE10=Everybody Loves Somebody
TTITLE11=Dear Heart
TTITLE12=The Shadow of Your Smile (Love Theme from "The Sandpiper")
TTITLE13=That Old Feeling
TTITLE14=Meditation
TTITLE15=Try To Remember
TTITLE16=Michelle
TTITLE17=Somewhere
TTITLE18=The Summer of Our Love
TTITLE19=Peg O' My Heart
TTITLE20=How Insensitive
TTITLE21=Yesterday
TTITLE22=Bye Bye Blues
TTITLE23=A Taste of Honey
EXTD=0\n\n\n
EXTT0=
EXTT1=
EXTT2=
EXTT3=
EXTT4=
EXTT5=
EXTT6=
EXTT7=
EXTT8=
EXTT9=
EXTT10=
EXTT11=
EXTT12=
EXTT13=
EXTT14=
EXTT15=
EXTT16=
EXTT17=
EXTT18=
EXTT19=
EXTT20=
EXTT21=
EXTT22=
EXTT23=
PLAYORDER=
